<svg width="109" height="12" viewBox="0 0 109 12" fill="none" xmlns="http://www.w3.org/2000/svg">
<path fill-rule="evenodd" clip-rule="evenodd" d="M74.0911 0.902148C70.7202 1.02596 67.3483 1.13993 63.9753 1.25019L62.9105 1.28407C64.1252 1.24711 64.2935 1.24095 63.4153 1.26805L60.7523 1.3469C58.9765 1.39865 57.2008 1.44731 55.4241 1.49474C52.147 1.58283 6.65533 -0.119801 4.06977 1.01241C1.87383 1.97399 0.0878983 3.61872 0.00426483 5.11253C-0.157913 8.02622 4.32169 11.7013 10.9411 11.5239C26.2077 11.1149 84.2171 12.5021 99.4419 11.7962C105.621 11.5103 110.15 7.66032 108.742 4.74478C107.085 1.31857 101.453 -0.26949 94.8297 0.0372801C87.9216 0.357601 81.0084 0.647122 74.0901 0.902148H74.0911Z" fill="#01FF70"/>
</svg>
